<svg xmlns="http://www.w3.org/2000/svg" width="512" height="512" id="chatting"><path fill="#3F5EAB" d="M233.319 293.742c0-46.93 57.468-84.974 128.357-84.974 70.891 0 128.359 38.044 128.359 84.974 0 39.963-41.676 73.477-97.82 82.549V410.5l-50.729-32.832c-61.297-6.413-108.167-41.543-108.167-83.926z"></path><linearGradient id="a" x1="100.671" x2="336.484" y1="349.563" y2="113.75" gradientUnits="userSpaceOnUse"><stop offset="0" stop-color="#0FF"></stop><stop offset="1" stop-color="#FF7BAC"></stop></linearGradient><path fill="url(#a)" d="M415.188 231.658c0-71.885-88.025-130.158-196.611-130.158-108.585 0-196.611 58.273-196.611 130.158 0 61.212 63.834 112.546 149.834 126.441v52.4l77.705-50.291c93.89-9.821 165.683-63.632 165.683-128.55z"></path><circle cx="218.577" cy="231.658" r="22.89" fill="#FFF"></circle><circle cx="123.97" cy="231.658" r="22.89" fill="#FFF"></circle><circle cx="313.183" cy="231.658" r="22.89" fill="#FFF"></circle></svg>